<svg width="16" height="16" viewBox="0 0 16 16" fill="none" xmlns="http://www.w3.org/2000/svg">
<path d="M5.91667 15.8333L5.58333 13.2917C5.36111 13.2222 5.13556 13.1181 4.90667 12.9792C4.67722 12.8403 4.46528 12.6944 4.27083 12.5417L1.91667 13.5417L0 10.2083L2.04167 8.66667C2.01389 8.54167 1.99667 8.41667 1.99 8.29167C1.98278 8.16667 1.97917 8.04167 1.97917 7.91667C1.97917 7.80556 1.98278 7.6875 1.99 7.5625C1.99667 7.4375 2.01389 7.30556 2.04167 7.16667L0 5.625L1.91667 2.3125L4.27083 3.29167C4.46528 3.13889 4.67722 2.99667 4.90667 2.865C5.13556 2.73278 5.36111 2.625 5.58333 2.54167L5.91667 0H9.75L10.0833 2.54167C10.3333 2.63889 10.5589 2.74639 10.76 2.86417C10.9617 2.9825 11.1667 3.125 11.375 3.29167L13.75 2.3125L15.6667 5.625L13.6042 7.1875C13.6319 7.32639 13.6458 7.45139 13.6458 7.5625C13.6458 7.67361 13.6458 7.79167 13.6458 7.91667C13.6458 8.02778 13.6422 8.14222 13.635 8.26C13.6283 8.37833 13.6111 8.51389 13.5833 8.66667L15.625 10.2083L13.7083 13.5417L11.375 12.5417C11.1667 12.7083 10.955 12.8542 10.74 12.9792C10.5244 13.1042 10.3056 13.2083 10.0833 13.2917L9.75 15.8333H5.91667ZM7.83333 10.4167C8.52778 10.4167 9.11806 10.1736 9.60417 9.6875C10.0903 9.20139 10.3333 8.61111 10.3333 7.91667C10.3333 7.22222 10.0903 6.63194 9.60417 6.14583C9.11806 5.65972 8.52778 5.41667 7.83333 5.41667C7.13889 5.41667 6.54861 5.65972 6.0625 6.14583C5.57639 6.63194 5.33333 7.22222 5.33333 7.91667C5.33333 8.61111 5.57639 9.20139 6.0625 9.6875C6.54861 10.1736 7.13889 10.4167 7.83333 10.4167ZM7.83333 9.16667C7.48611 9.16667 7.19111 9.045 6.94833 8.80167C6.705 8.55889 6.58333 8.26389 6.58333 7.91667C6.58333 7.56944 6.705 7.27444 6.94833 7.03167C7.19111 6.78833 7.48611 6.66667 7.83333 6.66667C8.18056 6.66667 8.47556 6.78833 8.71833 7.03167C8.96167 7.27444 9.08333 7.56944 9.08333 7.91667C9.08333 8.26389 8.96167 8.55889 8.71833 8.80167C8.47556 9.045 8.18056 9.16667 7.83333 9.16667ZM7 14.5833H8.64583L8.9375 12.3542C9.36806 12.2431 9.75695 12.0833 10.1042 11.875C10.4514 11.6667 10.7917 11.4028 11.125 11.0833L13.1875 11.9583L14.0208 10.5417L12.2083 9.1875C12.2778 8.96528 12.3231 8.75 12.3442 8.54167C12.3647 8.33333 12.375 8.125 12.375 7.91667C12.375 7.69444 12.3647 7.48278 12.3442 7.28167C12.3231 7.08 12.2778 6.875 12.2083 6.66667L14.0208 5.29167L13.2083 3.875L11.1042 4.75C10.8264 4.45833 10.4931 4.19778 10.1042 3.96833C9.71528 3.73944 9.32639 3.57639 8.9375 3.47917L8.66667 1.25H7.02083L6.72917 3.47917C6.3125 3.57639 5.92361 3.72917 5.5625 3.9375C5.20139 4.14583 4.85417 4.40972 4.52083 4.72917L2.45833 3.875L1.64583 5.29167L3.4375 6.625C3.36806 6.83333 3.31945 7.04167 3.29167 7.25C3.26389 7.45833 3.25 7.68056 3.25 7.91667C3.25 8.13889 3.26389 8.35417 3.29167 8.5625C3.31945 8.77083 3.36806 8.97917 3.4375 9.1875L1.64583 10.5417L2.45833 11.9583L4.52083 11.0833C4.84028 11.4028 5.18056 11.6667 5.54167 11.875C5.90278 12.0833 6.29861 12.2431 6.72917 12.3542L7 14.5833Z" fill="white" fill-opacity="0.56"/>
</svg>
