<svg width="16" height="15" viewBox="0 0 16 15" fill="none" xmlns="http://www.w3.org/2000/svg">
<path d="M7.91667 14.3125L6.97917 13.4792C4.86806 11.5764 3.17694 9.92361 1.90583 8.52083C0.635278 7.11806 0 5.66667 0 4.16667C0 2.98611 0.399444 1.99639 1.19833 1.1975C1.99667 0.399166 2.98611 0 4.16667 0C4.83333 0 5.49667 0.156111 6.15667 0.468333C6.81611 0.781111 7.40278 1.28472 7.91667 1.97917C8.43056 1.28472 9.0175 0.781111 9.6775 0.468333C10.3369 0.156111 11 0 11.6667 0C12.8472 0 13.8367 0.399166 14.635 1.1975C15.4339 1.99639 15.8333 2.98611 15.8333 4.16667C15.8333 5.66667 15.1978 7.11806 13.9267 8.52083C12.6561 9.92361 10.9653 11.5764 8.85417 13.4792L7.91667 14.3125ZM7.91667 12.625C9.90278 10.8194 11.5106 9.26389 12.74 7.95833C13.9689 6.65278 14.5833 5.38889 14.5833 4.16667C14.5833 3.33333 14.3056 2.63889 13.75 2.08333C13.1944 1.52778 12.5 1.25 11.6667 1.25C11.0139 1.25 10.4097 1.43056 9.85417 1.79167C9.29861 2.15278 8.85417 2.68056 8.52083 3.375H7.3125C6.97917 2.68056 6.53472 2.15278 5.97917 1.79167C5.42361 1.43056 4.81944 1.25 4.16667 1.25C3.33333 1.25 2.63889 1.52778 2.08333 2.08333C1.52778 2.63889 1.25 3.33333 1.25 4.16667C1.25 5.38889 1.86472 6.65278 3.09417 7.95833C4.32306 9.26389 5.93056 10.8194 7.91667 12.625Z" fill="white" fill-opacity="0.56"/>
</svg>
