<svg width="16" height="22" viewBox="0 0 16 22" fill="none" xmlns="http://www.w3.org/2000/svg">
<path d="M11.4 3.65L7.725 7.3L6.675 6.25L8.525 4.4H7.75C6.01667 4.4 4.54167 5.01233 3.325 6.237C2.10833 7.46233 1.5 8.95 1.5 10.7C1.5 11.1167 1.546 11.529 1.638 11.937C1.72933 12.3457 1.86667 12.75 2.05 13.15L0.925 14.275C0.625 13.7083 0.396 13.125 0.238 12.525C0.0793332 11.925 0 11.3167 0 10.7C0 8.53333 0.754333 6.69167 2.263 5.175C3.771 3.65833 5.6 2.9 7.75 2.9H8.525L6.675 1.05L7.725 0L11.4 3.65ZM4.1 17.65L7.775 14L8.825 15.05L6.975 16.9H7.75C9.48333 16.9 10.9583 16.2877 12.175 15.063C13.3917 13.8377 14 12.35 14 10.6C14 10.1833 13.9543 9.77067 13.863 9.362C13.771 8.954 13.6333 8.55 13.45 8.15L14.575 7.025C14.875 7.59167 15.1043 8.175 15.263 8.775C15.421 9.375 15.5 9.98333 15.5 10.6C15.5 12.7667 14.746 14.6083 13.238 16.125C11.7293 17.6417 9.9 18.4 7.75 18.4H6.975L8.825 20.25L7.775 21.3L4.1 17.65Z" fill="white"/>
</svg>
