<svg width="13" height="17" viewBox="0 0 13 17" fill="none" xmlns="http://www.w3.org/2000/svg">
<path d="M2.675 15.2H10.075C10.1417 15.2 10.2083 15.1667 10.275 15.1C10.3417 15.0333 10.375 14.9667 10.375 14.9V5.2H2.375V14.9C2.375 14.9667 2.40833 15.0333 2.475 15.1C2.54167 15.1667 2.60833 15.2 2.675 15.2ZM0 2.5V1H2.975L3.975 0H8.775L9.775 1H12.75V2.5H0ZM2.675 16.7C2.175 16.7 1.75 16.525 1.4 16.175C1.05 15.825 0.875 15.4 0.875 14.9V3.7H11.875V14.9C11.875 15.4 11.7 15.825 11.35 16.175C11 16.525 10.575 16.7 10.075 16.7H2.675ZM2.375 15.2H10.375C10.375 15.2 10.3417 15.2 10.275 15.2C10.2083 15.2 10.1417 15.2 10.075 15.2H2.675C2.60833 15.2 2.54167 15.2 2.475 15.2C2.40833 15.2 2.375 15.2 2.375 15.2Z" fill="white"/>
</svg>
